<svg width="13" height="22" viewBox="0 0 13 22" fill="none" xmlns="http://www.w3.org/2000/svg">
<path d="M7.43374 21.0705L2.6897 16.3265V16.2834L3.68164 15.2915C3.72476 15.2483 3.72476 15.2483 3.76789 15.2915L6.82995 18.3535C6.87308 18.3966 6.91621 18.3535 6.91621 18.3104L6.91621 2.56882C6.91621 2.09441 6.52806 1.70627 6.05365 1.70627L1.09398 1.70627C1.05085 1.70627 0.9646 1.66314 0.9646 1.57688L0.9646 0.326184C0.9646 0.283057 1.00773 0.239929 1.09398 0.239929L6.48493 0.239929C7.56312 0.239929 8.42567 1.10248 8.42567 2.18067V18.181C8.42567 18.2241 8.4688 18.2673 8.51193 18.2241L11.4015 15.3346C11.4446 15.2915 11.4877 15.2915 11.5309 15.3346L12.4365 16.2403C12.4797 16.2834 12.4797 16.3265 12.4365 16.3696L7.73563 21.0705C7.64937 21.1137 7.51999 21.1137 7.43374 21.0705Z" fill="white"/>
</svg>
