<svg width="45" height="44" viewBox="0 0 45 44" fill="none" xmlns="http://www.w3.org/2000/svg">
<path d="M20.6783 18.559C20.6783 17.1734 21.4031 16.4059 22.7887 16.4059C23.9399 16.4059 24.4728 17.0881 24.4728 17.7916C24.4728 19.0067 23.2791 19.3051 22.1492 20.1792C20.7209 21.2877 20.9554 22.247 20.9554 24.0803H23.7267C23.7267 22.5241 24.281 22.0338 25.7732 21.2024C27.2654 20.371 28.0968 19.3265 28.0968 17.621C28.0968 15.1482 25.9651 13.4854 23.0019 13.4854C19.0155 13.4854 17.0543 15.7451 17.0543 18.559H20.6783ZM22.3624 29.2605C23.3643 29.2605 24.1744 28.557 24.1744 27.4485C24.1744 26.3613 23.3643 25.6365 22.3624 25.6365C21.3391 25.6365 20.5504 26.3613 20.5504 27.4485C20.5504 28.557 21.3391 29.2605 22.3624 29.2605Z" fill="white"/>
<rect x="0.670532" y="1.14624" width="43.2278" height="42.1221" rx="3.92278" stroke="url(#paint0_linear_147_181)" stroke-opacity="0.4"/>
<defs>
<linearGradient id="paint0_linear_147_181" x1="22.2844" y1="0.64624" x2="22.2844" y2="43.7683" gradientUnits="userSpaceOnUse">
<stop stop-color="#DAC493"/>
<stop offset="1" stop-color="white" stop-opacity="0"/>
</linearGradient>
</defs>
</svg>
