<svg width="46" height="44" viewBox="0 0 46 44" fill="none" xmlns="http://www.w3.org/2000/svg">
<rect x="1.31714" y="1.14624" width="43.2278" height="42.1221" rx="3.92278" stroke="url(#paint0_linear_147_195)" stroke-opacity="0.4"/>
<path d="M32.4619 18.2956C32.7643 17.6792 32.5097 16.9344 31.8933 16.632C31.2768 16.3296 30.532 16.5842 30.2296 17.2006L27.8089 22.1354C27.0586 23.665 24.8534 23.5903 24.2083 22.0135C22.751 18.4512 17.7692 18.2824 16.0741 21.7379L13.6535 26.6727C13.3511 27.2892 13.6057 28.034 14.2221 28.3364C14.8385 28.6388 15.5834 28.3842 15.8858 27.7677L18.3064 22.8329C19.0567 21.3034 21.262 21.3781 21.907 22.9549C23.3643 26.5172 28.3462 26.686 30.0413 23.2304L32.4619 18.2956Z" fill="#FAFAFA"/>
<defs>
<linearGradient id="paint0_linear_147_195" x1="22.931" y1="0.64624" x2="22.931" y2="43.7683" gradientUnits="userSpaceOnUse">
<stop stop-color="#C1C1C1"/>
<stop offset="0.0001" stop-color="#DAC493"/>
<stop offset="1" stop-color="white" stop-opacity="0"/>
</linearGradient>
</defs>
</svg>
