<svg width="45" height="45" viewBox="0 0 45 45" fill="none" xmlns="http://www.w3.org/2000/svg">
<rect x="0.931641" y="1.4187" width="43.2278" height="42.1221" rx="3.92278" stroke="url(#paint0_linear_147_233)" stroke-opacity="0.4"/>
<path d="M28.2222 22.8889V27.3333C28.2222 27.8222 27.8222 28.2222 27.3333 28.2222H16.6667C16.1778 28.2222 15.7778 27.8222 15.7778 27.3333V22.8889C15.7778 22.4 15.3778 22 14.8889 22C14.4 22 14 22.4 14 22.8889V28.2222C14 29.2 14.8 30 15.7778 30H28.2222C29.2 30 30 29.2 30 28.2222V22.8889C30 22.4 29.6 22 29.1111 22C28.6222 22 28.2222 22.4 28.2222 22.8889ZM22.8889 22.5956L24.56 20.9244C24.6423 20.8421 24.74 20.7769 24.8475 20.7323C24.955 20.6878 25.0703 20.6649 25.1867 20.6649C25.303 20.6649 25.4183 20.6878 25.5258 20.7323C25.6333 20.7769 25.731 20.8421 25.8133 20.9244C25.8956 21.0067 25.9609 21.1044 26.0054 21.212C26.05 21.3195 26.0729 21.4347 26.0729 21.5511C26.0729 21.6675 26.05 21.7827 26.0054 21.8903C25.9609 21.9978 25.8956 22.0955 25.8133 22.1778L22.6222 25.3689C22.54 25.4513 22.4423 25.5167 22.3348 25.5613C22.2272 25.6059 22.112 25.6288 21.9956 25.6288C21.8791 25.6288 21.7639 25.6059 21.6563 25.5613C21.5488 25.5167 21.4511 25.4513 21.3689 25.3689L18.1778 22.1778C18.0116 22.0116 17.9182 21.7862 17.9182 21.5511C17.9182 21.3161 18.0116 21.0906 18.1778 20.9244C18.344 20.7582 18.5694 20.6649 18.8044 20.6649C19.0395 20.6649 19.2649 20.7582 19.4311 20.9244L21.1111 22.5956V14.8889C21.1111 14.4 21.5111 14 22 14C22.4889 14 22.8889 14.4 22.8889 14.8889V22.5956Z" fill="white"/>
<defs>
<linearGradient id="paint0_linear_147_233" x1="22.5455" y1="0.918701" x2="22.5455" y2="44.0408" gradientUnits="userSpaceOnUse">
<stop stop-color="#C1C1C1"/>
<stop offset="0.0001" stop-color="#DAC493"/>
<stop offset="1" stop-color="white" stop-opacity="0"/>
</linearGradient>
</defs>
</svg>
