<svg width="29" height="22" viewBox="0 0 29 22" fill="none" xmlns="http://www.w3.org/2000/svg">
<path d="M24.3186 2.20688C22.5489 1.39221 20.651 0.791988 18.6668 0.448219C18.6307 0.441585 18.5946 0.458165 18.576 0.491327C18.332 0.926839 18.0616 1.495 17.8723 1.94157C15.7381 1.62103 13.6149 1.62103 11.5244 1.94157C11.3351 1.48508 11.0549 0.926839 10.8098 0.491327C10.7912 0.459271 10.7551 0.442691 10.7189 0.448219C8.73578 0.79089 6.83802 1.39111 5.06718 2.20688C5.05186 2.21351 5.03872 2.22458 5.02999 2.23894C1.43033 7.6343 0.44423 12.897 0.927977 18.0945C0.930165 18.12 0.944393 18.1443 0.964094 18.1598C3.33905 19.9095 5.6396 20.9718 7.89743 21.6759C7.93357 21.687 7.97186 21.6737 7.99485 21.644C8.52894 20.9122 9.00503 20.1406 9.41323 19.3292C9.43733 19.2817 9.41433 19.2254 9.36509 19.2066C8.60993 18.9192 7.89086 18.5687 7.19917 18.1708C7.14446 18.1387 7.14008 18.0603 7.19041 18.0227C7.33597 17.9133 7.48156 17.7994 7.62055 17.6844C7.6457 17.6635 7.68074 17.659 7.7103 17.6723C12.2544 19.7537 17.174 19.7537 21.6645 17.6723C21.694 17.6579 21.7291 17.6623 21.7554 17.6834C21.8944 17.7983 22.0399 17.9133 22.1866 18.0227C22.2369 18.0603 22.2337 18.1387 22.179 18.1708C21.4873 18.5765 20.7682 18.9192 20.0119 19.2054C19.9627 19.2242 19.9408 19.2817 19.9649 19.3292C20.3818 20.1394 20.8579 20.911 21.3822 21.6428C21.4041 21.6737 21.4435 21.687 21.4795 21.6759C23.7483 20.9718 26.0489 19.9095 28.4239 18.1598C28.4447 18.1443 28.4578 18.1211 28.46 18.0957C29.0389 12.0867 27.4903 6.86717 24.3546 2.24003C24.347 2.22458 24.3339 2.21351 24.3186 2.20688ZM10.0918 14.9299C8.72373 14.9299 7.59646 13.6697 7.59646 12.1221C7.59646 10.5746 8.70188 9.3145 10.0918 9.3145C11.4927 9.3145 12.6091 10.5857 12.5872 12.1221C12.5872 13.6697 11.4817 14.9299 10.0918 14.9299ZM19.318 14.9299C17.95 14.9299 16.8227 13.6697 16.8227 12.1221C16.8227 10.5746 17.9281 9.3145 19.318 9.3145C20.719 9.3145 21.8353 10.5857 21.8134 12.1221C21.8134 13.6697 20.719 14.9299 19.318 14.9299Z" fill="white"/>
</svg>
