<svg width="7" height="4" viewBox="0 0 7 4" fill="none" xmlns="http://www.w3.org/2000/svg">
<path fill-rule="evenodd" clip-rule="evenodd" d="M6.81801 0.182043C6.90228 0.266419 6.94962 0.380793 6.94962 0.500043C6.94962 0.619294 6.90228 0.733668 6.81801 0.818043L3.81801 3.81804C3.73364 3.90231 3.61926 3.94965 3.50001 3.94965C3.38076 3.94965 3.26639 3.90231 3.18201 3.81804L0.182012 0.818043C0.1378 0.776846 0.102338 0.727166 0.0777426 0.671966C0.0531474 0.616766 0.0399226 0.557179 0.0388565 0.496757C0.0377904 0.436335 0.0489054 0.376318 0.071538 0.320285C0.0941706 0.264252 0.127857 0.213352 0.170588 0.17062C0.21332 0.127889 0.26422 0.0942025 0.320252 0.0715699C0.376285 0.0489372 0.436303 0.0378223 0.496725 0.0388884C0.557147 0.0399545 0.616735 0.0531798 0.671934 0.0777749C0.727134 0.10237 0.776814 0.137831 0.818011 0.182043L3.50001 2.86404L6.18201 0.182043C6.26639 0.0977732 6.38076 0.0504393 6.50001 0.0504393C6.61926 0.0504393 6.73364 0.0977732 6.81801 0.182043V0.182043Z" fill="white"/>
</svg>
